<?xml version="1.0" encoding="UTF-8"?>
<svg xmlns="http://www.w3.org/2000/svg" xmlns:svg="http://www.w3.org/2000/svg" width="179.5987" height="104.528" version="1.1">
  <g class="layer">
    <title>Layer 1</title>
    <path d="m0,0l179.6,0l0,104.53l-179.6,0l0,-104.53z" fill="transparent" id="svg_1" transform="matrix(1, 0, 0, 1, 0, 0)"></path>
    <g id="svg_2" transform="translate(-0.856559, 7.05593) scale(1, 1.02517) translate(0.856559, -7.05593) translate(-0.856559, 7.12626) matrix(1.33315, 0, 0, 1.26981, 1, 0.929674)">
      <g id="svg_3" transform="translate(0, 0)">
        <path d="m14.1,8.29c0.03,-0.22 0.04,-0.45 0.04,-0.69c0,-0.13 0,-0.27 -0.01,-0.44c1.99,-0.03 3.74,-1.47 3.74,-3.12c0,-0.84 -0.55,-1.47 -0.86,-1.85c0.07,-0.02 0.14,-0.03 0.21,-0.05c0.29,0.25 1.12,1.15 1.12,2.29c0,1.98 -1.98,3.82 -4.24,3.86m-2.01,-6.89c-0.03,-0.23 -0.12,-0.43 -0.25,-0.6c0.01,-0.2 0.09,-0.39 0.42,-0.23c-0.18,0.18 -0.04,0.5 -0.04,0.5c0,0 0.36,-0.17 0.28,-0.41c0.54,0.13 0.15,0.85 -0.41,0.74m-0.46,1.01c-0.07,-0.29 -0.22,-0.6 -0.42,-0.83c-0.17,-0.2 -0.46,-0.45 -0.86,-0.45c-0.17,0 -0.47,0.08 -0.67,0.16c-0.07,-0.13 -0.21,-0.44 -0.21,-0.58c0,-0.15 0.25,-0.29 0.72,-0.29c1.03,0 1.65,0.46 1.65,1.25c0,0.27 -0.11,0.52 -0.21,0.74m2.65,13.3c0.12,0 0.18,0.02 0.25,0.05c0.29,0.81 1.44,2.33 1.49,2.4l0.01,0.01l0.01,0c0.29,-0.05 1,-0.16 1.6,-0.16l0.02,0c0.06,0 0.14,0 0.18,0.05c0.04,0.04 0.06,0.11 0.06,0.2c0,0.15 -0.06,0.41 -0.14,0.52c-0.21,-0.23 -0.55,-0.34 -1.1,-0.34c-0.16,0 -0.35,0.05 -0.46,0.08l-0.04,0.01l-0.05,0.01l0.31,0.32c0.49,0.48 0.91,0.9 0.91,1.18c0,0.17 -0.16,0.39 -0.31,0.49c-0.04,-0.51 -0.55,-1.2 -1.06,-1.58l-0.04,-0.03l-0.01,0.18c0,0.12 -0.01,0.3 -0.01,0.5c0,0.97 -0.1,1.12 -0.44,1.12c-0.05,0 -0.13,-0.02 -0.18,-0.03c0.19,-0.24 0.26,-0.55 0.26,-1.09l0,-0.25l0,-0.21c0,-0.22 0.02,-0.38 0.04,-0.52l0.01,-0.07l-0.05,-0.01c-0.16,-0.02 -0.45,-0.06 -0.68,-0.06c-0.48,0 -0.81,0.04 -1.04,0.26c-0.16,-0.12 -0.32,-0.34 -0.32,-0.48c0,-0.2 0.13,-0.21 0.29,-0.21c0.09,0 0.17,0.01 0.27,0.02c0.21,0.03 0.52,0.08 1.16,0.08l0.04,0l-0.01,-0.04c-0.16,-0.47 -0.61,-1.14 -1.32,-2.01c0.06,-0.23 0.12,-0.39 0.35,-0.39m-6.17,2.4l-0.02,0.04l0.04,0c0.64,0 0.95,-0.05 1.16,-0.08c0.11,-0.01 0.19,-0.02 0.27,-0.02c0.17,0 0.29,0.01 0.29,0.21c0,0.14 -0.16,0.36 -0.31,0.48c-0.24,-0.22 -0.57,-0.26 -1.04,-0.26c-0.23,0 -0.52,0.04 -0.68,0.06l-0.03,0l-0.02,0.01l0.01,0.07c0.01,0.14 0.04,0.3 0.04,0.52l-0.01,0.21l0,0.25c0,0.54 0.08,0.85 0.27,1.09c-0.05,0.01 -0.13,0.03 -0.18,0.03c-0.34,0 -0.44,-0.15 -0.44,-1.12c0,-0.2 -0.01,-0.38 -0.02,-0.5l-0.01,-0.18l-0.04,0.03c-0.5,0.38 -1.02,1.07 -1.05,1.58c-0.15,-0.1 -0.31,-0.32 -0.31,-0.49c0,-0.28 0.42,-0.7 0.9,-1.18l0.28,-0.28l0.04,-0.04l-0.1,-0.02c-0.1,-0.03 -0.29,-0.08 -0.46,-0.08c-0.54,0 -0.88,0.11 -1.1,0.34c-0.07,-0.11 -0.13,-0.37 -0.13,-0.52c0,-0.09 0.01,-0.16 0.05,-0.2c0.05,-0.05 0.12,-0.05 0.19,-0.05l0.01,0c0.6,0 1.32,0.11 1.6,0.16l0.02,0l0.01,-0.01c0.05,-0.07 1.19,-1.59 1.49,-2.4c0.07,-0.03 0.13,-0.05 0.25,-0.05c0.22,0 0.28,0.16 0.35,0.39c-0.72,0.87 -1.16,1.54 -1.32,2.01m-3.1,-13.68c0,-1.13 0.83,-2.04 1.12,-2.29c0.07,0.02 0.14,0.03 0.21,0.05c-0.31,0.38 -0.85,1.01 -0.85,1.85c0,1.67 1.78,3.12 3.8,3.12c-0.02,0.14 -0.02,0.29 -0.02,0.44c0,0.25 0.01,0.48 0.03,0.7c-2.28,-0.02 -4.29,-1.87 -4.29,-3.87m15.31,3.52c1.02,1.62 1.82,1.59 3.03,1.59c-1,-0.77 -1.66,-1.75 -1.97,-2.25l-1.87,-2.99c-0.19,-0.93 -0.66,-1.79 -1.38,-2.44c0.24,-0.09 0.44,-0.18 0.56,-0.27c-1.22,0 -2.43,-0.62 -3.1,-0.62c-0.42,0 -0.7,0.25 -0.7,0.59c0.03,0.38 0.42,0.76 1.13,0.76c0.16,0 0.37,-0.02 0.6,-0.06c0.39,0.54 0.7,1.03 0.7,1.73c0,1.31 -1.56,2.33 -3.15,2.33c-0.09,0 -0.17,0 -0.26,-0.01c-0.14,-0.32 -0.62,-0.87 -0.62,-1.49c0,-1.04 0.68,-1.89 0.68,-2.92c0,-0.64 -0.31,-1.04 -0.43,-1.2c0.19,-0.18 0.4,-0.41 0.45,-0.56c-0.11,0.05 -0.24,0.06 -0.44,0.06c-0.76,0 -1.37,-0.2 -1.98,-0.2c-0.34,0 -0.43,0.11 -0.43,0.21c0,0.03 0,0.07 0.01,0.09c-0.13,-0.05 -0.25,-0.08 -0.39,-0.11c-0.18,-0.03 -0.37,-0.05 -0.57,-0.05c-0.73,0 -0.99,0.31 -0.99,0.57c0,0.22 0.17,0.63 0.37,0.94c0.29,-0.15 0.63,-0.24 0.78,-0.24c0.39,0 0.74,0.37 0.92,0.81c-0.26,0.03 -0.31,0.04 -0.57,0.04c-0.72,0 -1.2,-0.26 -1.3,-0.26c-0.01,0 -0.03,0.01 -0.03,0.02c0,0.1 0.2,0.37 0.6,0.51c0.53,0.2 1.31,0.28 1.44,0.3c0,0.02 -0.13,0.27 -0.28,0.32c-0.03,0.01 -0.06,0.01 -0.09,0c-0.55,-0.11 -0.7,-0.15 -1.4,-0.42c-0.02,-0.01 -0.03,0.01 -0.03,0.03c0,0.27 0.71,0.88 1.35,1.11c-0.54,0.68 -1.2,1.38 -1.51,2.44c-0.09,0.01 -0.18,0.01 -0.27,0.01c-1.58,0 -3.15,-1.02 -3.15,-2.33c0,-0.7 0.32,-1.19 0.71,-1.73c0.22,0.04 0.43,0.06 0.59,0.06c0.72,0 1.11,-0.38 1.14,-0.76c0,-0.34 -0.28,-0.59 -0.71,-0.59c-0.66,0 -1.87,0.62 -3.1,0.62c0.13,0.09 0.33,0.18 0.57,0.27c-0.72,0.65 -1.2,1.51 -1.38,2.44l-1.87,2.99c-0.31,0.5 -0.98,1.48 -1.98,2.25c1.21,0 2.01,0.03 3.04,-1.59l0.96,-1.54c0.07,0.2 0.15,0.4 0.26,0.59l-1.91,3.05c-0.32,0.5 -0.98,1.48 -1.98,2.25c1.21,0 2.01,0.03 3.04,-1.59l1.64,-2.63c0.12,0.13 0.25,0.26 0.38,0.38l-2.31,3.71c-0.32,0.51 -0.97,1.48 -1.98,2.25c1.21,0 2.01,0.03 3.03,-1.59l2.26,-3.61c0.15,0.09 0.3,0.18 0.46,0.27l-2.76,4.41c-0.31,0.5 -0.97,1.47 -1.97,2.25c1.21,0 2.01,0.03 3.03,-1.59l2.84,-4.55c0.17,0.07 0.34,0.13 0.51,0.19l-3.21,5.13c-0.31,0.5 -0.98,1.49 -1.98,2.25c1.21,0 2.02,0.03 3.04,-1.59l3.42,-5.47c0.03,0 0.07,0.01 0.1,0.02c0.09,0.29 0.16,0.57 0.16,0.84c0,1.72 -1.13,3.24 -2.48,4.41c0.08,0.04 0.23,0.05 0.37,0.05c0.28,0 0.46,-0.01 0.59,-0.03c-0.31,0.71 -0.99,1.63 -1.33,2.11c-0.44,-0.08 -1.09,-0.15 -1.51,-0.15c-0.44,0 -0.49,0.26 -0.49,0.49c0,0.4 0.19,0.72 0.41,0.9c0.08,-0.2 0.24,-0.48 1.06,-0.48c0.02,0 0.04,0 0.08,0.01c-0.24,0.26 -0.98,0.87 -0.98,1.35c0,0.32 0.35,0.81 0.81,0.81c-0.02,-0.11 -0.02,-0.2 -0.02,-0.27c0,-0.4 0.35,-0.86 0.64,-1.18c0,0.1 0,0.09 0,0.2c0,0.93 0.08,1.36 0.68,1.36c0.29,0 0.49,-0.16 0.55,-0.21c-0.38,-0.35 -0.4,-0.63 -0.4,-1.15c0,-0.14 0,-0.27 0,-0.46c0.01,-0.12 0,-0.27 -0.02,-0.39c0.22,-0.03 0.3,-0.03 0.46,-0.03c0,0 0.84,-0.06 1.05,0.37c0.22,-0.21 0.56,-0.5 0.56,-0.83c0,-0.21 -0.11,-0.45 -0.54,-0.45c-0.16,0 -0.68,0.1 -1.11,0.1c0.12,-0.26 0.63,-1.01 1.08,-1.56c0.07,0.21 0.17,0.44 0.41,0.63c0.03,-0.35 0.23,-1.47 0.78,-2.12c0.07,0.44 0.15,0.89 0.15,1.84c0,2.32 -0.55,4.03 -1.73,4.35c0.15,0.27 0.48,0.51 0.81,0.51c0.44,0 0.67,-0.49 0.91,-0.95c0.13,0.34 0.47,1.17 0.82,1.17c0.34,0 0.69,-0.83 0.81,-1.17c0.24,0.46 0.48,0.95 0.91,0.95c0.34,0 0.66,-0.24 0.82,-0.51c-1.18,-0.32 -1.74,-2.03 -1.74,-4.35c0,-0.95 0.08,-1.4 0.15,-1.84c0.55,0.65 0.76,1.77 0.79,2.12c0.23,-0.19 0.34,-0.42 0.41,-0.63c0.44,0.55 0.96,1.3 1.07,1.56c-0.43,0 -0.94,-0.1 -1.11,-0.1c-0.43,0 -0.53,0.24 -0.53,0.45c0,0.33 0.33,0.62 0.56,0.83c0.2,-0.43 1.04,-0.37 1.04,-0.37c0.16,0 0.25,0 0.46,0.03c-0.02,0.12 -0.02,0.27 -0.02,0.39c0,0.19 0,0.32 0,0.46c0,0.52 -0.02,0.8 -0.4,1.15c0.07,0.05 0.27,0.21 0.56,0.21c0.59,0 0.67,-0.43 0.67,-1.36c0,-0.11 0.01,-0.1 0,-0.2c0.3,0.32 0.64,0.78 0.64,1.18c0,0.07 0.01,0.16 -0.02,0.27c0.46,0 0.82,-0.49 0.82,-0.81c0,-0.48 -0.75,-1.09 -0.99,-1.35c0.04,-0.01 0.07,-0.01 0.08,-0.01c0.82,0 0.99,0.28 1.07,0.48c0.22,-0.18 0.4,-0.5 0.4,-0.9c0,-0.23 -0.05,-0.49 -0.49,-0.49c-0.42,0 -1.06,0.07 -1.51,0.15c-0.34,-0.48 -1.01,-1.4 -1.33,-2.11c0.13,0.02 0.31,0.03 0.59,0.03c0.14,0 0.29,-0.01 0.38,-0.05c-1.36,-1.17 -2.48,-2.69 -2.48,-4.41c0,-0.27 0.06,-0.55 0.15,-0.84c0.04,-0.01 0.07,-0.02 0.11,-0.02l3.41,5.47c1.03,1.62 1.83,1.59 3.04,1.59c-1,-0.76 -1.67,-1.75 -1.98,-2.25l-3.21,-5.13c0.18,-0.06 0.35,-0.12 0.52,-0.19l2.83,4.55c1.03,1.62 1.83,1.59 3.04,1.59c-1.01,-0.78 -1.66,-1.75 -1.98,-2.25l-2.76,-4.41c0.16,-0.09 0.31,-0.18 0.46,-0.27l2.26,3.61c1.02,1.62 1.83,1.59 3.04,1.59c-1.01,-0.77 -1.66,-1.74 -1.98,-2.25l-2.32,-3.71c0.14,-0.12 0.27,-0.25 0.39,-0.38l1.64,2.63c1.02,1.62 1.83,1.59 3.04,1.59c-1.01,-0.77 -1.67,-1.75 -1.98,-2.25l-1.91,-3.05c0.1,-0.19 0.19,-0.39 0.26,-0.59l0.96,1.54z" id="svg_4"></path>
      </g>
      <g id="svg_5" transform="translate(29.427, 1)">
        <path d="m0,0l3.5,0l0,20l-3.5,0l0,-20z" id="svg_6"></path>
        <path d="m0,20l3.5,0l0,20l-3.5,0l0,-20z" fill="#FF0000" id="svg_7"></path>
        <path d="m0,40l3.5,0l0,20l-3.5,0l0,-20z" fill="#FFCC00" id="svg_8"></path>
      </g>
      <g id="svg_9" transform="translate(39.927, 8.988)">
        <path d="m5.29,-6.17c0,-1.28 -0.78,-2.11 -2.75,-2.11l-1.59,0l0,8.28l1.69,0c1.98,0 2.87,-0.95 2.87,-2.24c0,-1.11 -0.71,-1.83 -1.56,-2l0,-0.02c0.72,-0.19 1.34,-0.76 1.34,-1.91zm-1.05,0.04c0,0.95 -0.59,1.53 -1.71,1.53l-0.54,0l0,-2.85l0.55,0c1.17,0 1.7,0.56 1.7,1.32zm0.15,3.81c0,0.95 -0.53,1.46 -1.75,1.46l-0.65,0l0,-2.91l0.71,0c1.08,0 1.69,0.57 1.69,1.45zm5.52,1.67l0.03,0l0,0.65l0.88,0l0,-5.76l-0.97,0l0,4.4c-0.19,0.24 -0.57,0.64 -1.16,0.64c-0.65,0 -0.96,-0.38 -0.96,-1.33l0,-3.71l-0.97,0l0,3.78c0,1.56 0.63,2.12 1.65,2.12c0.88,0 1.39,-0.58 1.5,-0.79zm4.55,-4.43c0.67,0 1,0.4 1,1.37l0,3.71l0.97,0l0,-3.78c0,-1.56 -0.65,-2.12 -1.68,-2.12c-0.9,0 -1.42,0.58 -1.53,0.79l-0.02,0l0,-0.65l-0.89,0l0,5.76l0.97,0l0,-4.44c0.2,-0.24 0.59,-0.64 1.18,-0.64zm5.44,4.36c-0.68,0 -1.28,-0.53 -1.28,-2.11c0,-1.63 0.71,-2.21 1.61,-2.21c0.35,0 0.58,0.1 0.75,0.2l0,3.56c-0.14,0.19 -0.47,0.56 -1.08,0.56zm1.14,0.11l0.02,0l0,0.61l0.89,0l0,-8.59l-0.97,0.11l0,2.76c-0.18,-0.08 -0.45,-0.15 -0.82,-0.15c-1.22,0 -2.54,0.75 -2.54,3.07c0,2.1 0.92,2.94 2.01,2.94c0.91,0 1.3,-0.57 1.41,-0.75zm4.27,-4.5c0.61,0 0.93,0.47 0.93,1.26c0,0.18 -0.01,0.33 -0.02,0.42l-2.09,0c0.05,-1.08 0.49,-1.68 1.18,-1.68zm1.94,4.57l-0.36,-0.68c-0.13,0.13 -0.53,0.5 -1.21,0.5c-0.97,0 -1.5,-0.64 -1.56,-1.98l2.94,0c0.04,-0.28 0.07,-0.62 0.07,-1.12c0,-1.38 -0.67,-2.08 -1.76,-2.08c-1.2,0 -2.2,0.91 -2.2,2.95c0,2.17 0.91,3.09 2.37,3.09c1.09,0 1.56,-0.51 1.71,-0.68zm4.08,-4.75c-0.19,-0.19 -0.57,-0.61 -1.46,-0.61c-0.94,0 -1.67,0.63 -1.67,1.48c0,0.8 0.43,1.26 1.15,1.72l0.36,0.23c0.55,0.35 0.84,0.54 0.84,1.09c0,0.37 -0.31,0.66 -0.89,0.66c-0.62,0 -0.98,-0.37 -1.16,-0.56l-0.47,0.76c0.23,0.24 0.7,0.66 1.62,0.66c1.18,0 1.84,-0.7 1.84,-1.62c0,-0.85 -0.48,-1.32 -1.26,-1.78l-0.36,-0.22c-0.52,-0.31 -0.76,-0.55 -0.76,-0.98c0,-0.34 0.28,-0.62 0.79,-0.62c0.54,0 0.88,0.34 1.01,0.48l0.42,-0.69zm3.46,0.25c0.6,0 0.86,0.4 0.86,1.33l0,3.71l0.97,0l0,-3.86c0,-0.22 -0.01,-0.42 -0.04,-0.6c0.21,-0.26 0.57,-0.58 1.1,-0.58c0.65,0 1,0.4 1,1.33l0,3.71l0.97,0l0,-3.86c0,-1.37 -0.6,-2.04 -1.75,-2.04c-0.75,0 -1.28,0.44 -1.53,0.76c-0.26,-0.51 -0.74,-0.76 -1.39,-0.76c-0.79,0 -1.28,0.52 -1.44,0.79l-0.02,0l0,-0.65l-0.89,0l0,5.76l0.97,0l0,-4.44c0.17,-0.2 0.54,-0.6 1.19,-0.6zm6.8,-2.11c0.39,0 0.65,-0.29 0.65,-0.7c0,-0.39 -0.26,-0.68 -0.65,-0.68c-0.39,0 -0.66,0.29 -0.66,0.68c0,0.41 0.27,0.7 0.66,0.7zm0.48,1.39l-0.97,0l0,5.76l0.97,0l0,-5.76zm3.64,0.68c0.67,0 0.99,0.4 0.99,1.37l0,3.71l0.98,0l0,-3.78c0,-1.56 -0.65,-2.12 -1.68,-2.12c-0.9,0 -1.42,0.58 -1.53,0.79l-0.02,0l0,-0.65l-0.89,0l0,5.76l0.97,0l0,-4.44c0.19,-0.24 0.59,-0.64 1.18,-0.64zm3.91,-2.07c0.38,0 0.65,-0.29 0.65,-0.7c0,-0.39 -0.27,-0.68 -0.65,-0.68c-0.4,0 -0.66,0.29 -0.66,0.68c0,0.41 0.26,0.7 0.66,0.7zm0.48,1.39l-0.97,0l0,5.76l0.97,0l0,-5.76zm4.39,0.47c-0.19,-0.19 -0.57,-0.61 -1.46,-0.61c-0.94,0 -1.67,0.63 -1.67,1.48c0,0.8 0.43,1.26 1.15,1.72l0.36,0.23c0.55,0.35 0.84,0.54 0.84,1.09c0,0.37 -0.31,0.66 -0.89,0.66c-0.62,0 -0.98,-0.37 -1.16,-0.56l-0.47,0.76c0.23,0.24 0.7,0.66 1.62,0.66c1.18,0 1.84,-0.7 1.84,-1.62c0,-0.85 -0.48,-1.32 -1.26,-1.78l-0.36,-0.22c-0.52,-0.31 -0.76,-0.55 -0.76,-0.98c0,-0.34 0.28,-0.62 0.79,-0.62c0.54,0 0.88,0.34 1.01,0.48l0.42,-0.69zm3.91,5.18l-0.13,-0.78c-0.09,0.06 -0.31,0.17 -0.6,0.17c-0.49,0 -0.68,-0.24 -0.68,-1.06l0,-3.19l1.26,0l0.12,-0.79l-1.38,0l0,-1.61l-0.87,0l-0.1,1.61l-0.7,0.14l0,0.65l0.7,0l0,3.33c0,1.27 0.5,1.78 1.48,1.78c0.52,0 0.82,-0.19 0.9,-0.25zm2.74,-5c0.61,0 0.94,0.47 0.94,1.26c0,0.18 -0.02,0.33 -0.03,0.42l-2.09,0c0.05,-1.08 0.5,-1.68 1.18,-1.68zm1.94,4.57l-0.36,-0.68c-0.13,0.13 -0.52,0.5 -1.21,0.5c-0.97,0 -1.5,-0.64 -1.56,-1.98l2.94,0c0.04,-0.28 0.07,-0.62 0.07,-1.12c0,-1.38 -0.67,-2.08 -1.76,-2.08c-1.2,0 -2.2,0.91 -2.2,2.95c0,2.17 0.92,3.09 2.37,3.09c1.09,0 1.56,-0.51 1.71,-0.68zm3.83,-5.23c-0.09,-0.04 -0.25,-0.1 -0.53,-0.1c-0.73,0 -1.04,0.43 -1.21,0.89l-0.02,0l0,-0.78l-0.89,0l0,5.76l0.97,0l0,-4.22c0.15,-0.39 0.47,-0.78 1.08,-0.78c0.27,0 0.43,0.07 0.48,0.09l0.12,-0.86zm1.33,-1.38c0.39,0 0.65,-0.29 0.65,-0.7c0,-0.39 -0.26,-0.68 -0.65,-0.68c-0.39,0 -0.66,0.29 -0.66,0.68c0,0.41 0.27,0.7 0.66,0.7zm0.48,1.39l-0.97,0l0,5.76l0.97,0l0,-5.76zm4.61,5.11l0.03,0l0,0.65l0.88,0l0,-5.76l-0.97,0l0,4.4c-0.19,0.24 -0.57,0.64 -1.16,0.64c-0.65,0 -0.96,-0.38 -0.96,-1.33l0,-3.71l-0.97,0l0,3.78c0,1.56 0.63,2.12 1.65,2.12c0.88,0 1.39,-0.58 1.5,-0.79zm4.56,-4.39c0.6,0 0.87,0.4 0.87,1.33l0,3.71l0.97,0l0,-3.86c0,-0.22 -0.01,-0.42 -0.05,-0.6c0.22,-0.26 0.58,-0.58 1.1,-0.58c0.65,0 1,0.4 1,1.33l0,3.71l0.97,0l0,-3.86c0,-1.37 -0.6,-2.04 -1.75,-2.04c-0.74,0 -1.27,0.44 -1.52,0.76c-0.27,-0.51 -0.75,-0.76 -1.4,-0.76c-0.79,0 -1.28,0.52 -1.44,0.79l-0.02,0l0,-0.65l-0.89,0l0,5.76l0.97,0l0,-4.44c0.17,-0.2 0.54,-0.6 1.19,-0.6z" id="svg_10" transform="translate(0, 0)"></path>
        <path d="m3.17,-4.97l0.12,-0.79l-1.3,0l0,-1.03c0,-0.76 0.25,-1.01 0.71,-1.01c0.25,0 0.43,0.1 0.53,0.16l0.2,-0.81c-0.09,-0.06 -0.41,-0.21 -0.81,-0.21c-0.86,0 -1.6,0.5 -1.6,1.76l0,1.15l-0.7,0.13l0,0.65l0.7,0l0,4.97l0.97,0l0,-4.97l1.18,0zm4.45,-2.45c0,-0.37 -0.25,-0.61 -0.58,-0.61c-0.32,0 -0.57,0.24 -0.57,0.61c0,0.38 0.25,0.62 0.57,0.62c0.33,0 0.58,-0.24 0.58,-0.62zm-1.85,0c0,-0.37 -0.25,-0.61 -0.57,-0.61c-0.33,0 -0.58,0.24 -0.58,0.61c0,0.38 0.25,0.62 0.58,0.62c0.32,0 0.57,-0.24 0.57,-0.62zm1.48,6.77l0.02,0l0,0.65l0.89,0l0,-5.76l-0.97,0l0,4.4c-0.19,0.24 -0.58,0.64 -1.17,0.64c-0.64,0 -0.96,-0.38 -0.96,-1.33l0,-3.71l-0.97,0l0,3.78c0,1.56 0.64,2.12 1.66,2.12c0.87,0 1.39,-0.58 1.5,-0.79zm5.05,-5.12c-0.1,-0.04 -0.25,-0.1 -0.53,-0.1c-0.73,0 -1.04,0.43 -1.21,0.89l-0.02,0l0,-0.78l-0.89,0l0,5.76l0.97,0l0,-4.22c0.14,-0.39 0.47,-0.78 1.08,-0.78c0.26,0 0.43,0.07 0.48,0.09l0.12,-0.86zm4.75,5.77c2.53,0 4.11,-1.31 4.11,-4.34c0,-2.85 -1.29,-3.94 -3.99,-3.94l-1.56,0l0,8.28l1.44,0zm0.12,-7.45c1.84,0 2.87,0.77 2.87,3.11c0,2.53 -1.08,3.48 -2.99,3.48l-0.39,0l0,-6.59l0.51,0zm5.79,0.3c0.38,0 0.64,-0.29 0.64,-0.7c0,-0.39 -0.26,-0.68 -0.64,-0.68c-0.4,0 -0.66,0.29 -0.66,0.68c0,0.41 0.26,0.7 0.66,0.7zm0.48,1.39l-0.98,0l0,5.76l0.98,0l0,-5.76zm4.22,1.79c0,0.83 -0.46,1.15 -1.01,1.15c-0.53,0 -0.99,-0.32 -0.99,-1.15c0,-0.83 0.46,-1.15 1.02,-1.15c0.52,0 0.98,0.32 0.98,1.15zm1.42,4.41c0,-1.09 -0.82,-1.52 -1.91,-1.52l-0.73,0c-0.42,0 -0.59,-0.17 -0.59,-0.41c0,-0.3 0.27,-0.45 0.47,-0.54c0.09,0.01 0.19,0.01 0.3,0.01c1.12,0 1.99,-0.73 1.99,-1.95c0,-0.39 -0.1,-0.75 -0.28,-1.03l0.72,0l0.13,-0.76l-1.75,0c-0.24,-0.1 -0.49,-0.14 -0.77,-0.14c-1.08,0 -1.95,0.63 -1.95,1.93c0,0.91 0.39,1.49 0.98,1.76l0,0.03c-0.14,0.07 -0.69,0.31 -0.69,0.93c0,0.36 0.13,0.63 0.37,0.81l0,0.02c-0.27,0.14 -0.96,0.55 -0.96,1.4c0,1 0.66,1.56 1.88,1.56c1.71,0 2.79,-0.86 2.79,-2.1zm-2.72,1.28c-0.68,0 -1.02,-0.32 -1.02,-0.93c0,-0.57 0.32,-0.85 0.59,-1.01c0.13,0.03 0.29,0.04 0.45,0.04l0.73,0c0.59,0 0.97,0.22 0.97,0.77c0,0.59 -0.54,1.13 -1.72,1.13zm4.29,-8.87c0.38,0 0.65,-0.29 0.65,-0.7c0,-0.39 -0.27,-0.68 -0.65,-0.68c-0.4,0 -0.66,0.29 -0.66,0.68c0,0.41 0.26,0.7 0.66,0.7zm0.48,1.39l-0.97,0l0,5.76l0.97,0l0,-5.76zm4.1,5.65l-0.13,-0.78c-0.1,0.06 -0.31,0.17 -0.6,0.17c-0.49,0 -0.68,-0.24 -0.68,-1.06l0,-3.19l1.26,0l0.12,-0.79l-1.38,0l0,-1.61l-0.87,0l-0.11,1.61l-0.69,0.14l0,0.65l0.69,0l0,3.33c0,1.27 0.51,1.78 1.49,1.78c0.52,0 0.82,-0.19 0.9,-0.25zm3.31,-3.13l-0.3,0c-1.3,0 -2.4,0.44 -2.4,1.78c0,0.93 0.66,1.6 1.54,1.6c0.73,0 1.08,-0.49 1.21,-0.78l0.03,0c0.01,0.29 0.02,0.47 0.03,0.64l0.93,0c-0.03,-0.16 -0.08,-0.71 -0.08,-1.2l0,-2.63c0,-1.45 -0.62,-2.07 -1.8,-2.07c-0.92,0 -1.47,0.44 -1.72,0.69l0.4,0.65c0.22,-0.19 0.6,-0.52 1.18,-0.52c0.62,0 0.98,0.32 0.98,1.29l0,0.55zm0,0.72l0,1.27c-0.12,0.18 -0.39,0.57 -0.96,0.57c-0.48,0 -0.76,-0.3 -0.76,-0.89c0,-0.64 0.49,-0.9 1.41,-0.94l0.31,-0.01zm3.39,-6.07l-0.97,0.11l0,7.22c0,1.02 0.44,1.37 1.09,1.37c0.43,0 0.68,-0.11 0.78,-0.16l-0.09,-0.72c-0.06,0.03 -0.18,0.07 -0.36,0.07c-0.33,0 -0.45,-0.16 -0.45,-0.64l0,-7.25zm3.65,3.48c0.61,0 0.93,0.47 0.93,1.26c0,0.18 -0.01,0.33 -0.02,0.42l-2.09,0c0.05,-1.08 0.49,-1.68 1.18,-1.68zm1.94,4.57l-0.36,-0.68c-0.13,0.13 -0.53,0.5 -1.21,0.5c-0.97,0 -1.5,-0.64 -1.56,-1.98l2.94,0c0.03,-0.28 0.07,-0.62 0.07,-1.12c0,-1.38 -0.67,-2.08 -1.76,-2.08c-1.2,0 -2.2,0.91 -2.2,2.95c0,2.17 0.91,3.09 2.36,3.09c1.1,0 1.56,-0.51 1.72,-0.68zm4.08,-4.75c-0.19,-0.19 -0.58,-0.61 -1.46,-0.61c-0.94,0 -1.67,0.63 -1.67,1.48c0,0.8 0.43,1.26 1.15,1.72l0.36,0.23c0.55,0.35 0.84,0.54 0.84,1.09c0,0.37 -0.31,0.66 -0.89,0.66c-0.62,0 -0.98,-0.37 -1.16,-0.56l-0.47,0.76c0.23,0.24 0.7,0.66 1.62,0.66c1.18,0 1.84,-0.7 1.84,-1.62c0,-0.85 -0.48,-1.32 -1.26,-1.78l-0.36,-0.22c-0.52,-0.31 -0.76,-0.55 -0.76,-0.98c0,-0.34 0.28,-0.62 0.79,-0.62c0.54,0 0.88,0.34 1.01,0.48l0.42,-0.69zm6.96,4.64l0.02,0l0,0.65l0.89,0l0,-5.76l-0.97,0l0,4.4c-0.19,0.24 -0.58,0.64 -1.16,0.64c-0.65,0 -0.96,-0.38 -0.96,-1.33l0,-3.71l-0.98,0l0,3.78c0,1.56 0.64,2.12 1.66,2.12c0.88,0 1.39,-0.58 1.5,-0.79zm4.55,-4.43c0.67,0 0.99,0.4 0.99,1.37l0,3.71l0.98,0l0,-3.78c0,-1.56 -0.65,-2.12 -1.68,-2.12c-0.9,0 -1.42,0.58 -1.53,0.79l-0.02,0l0,-0.65l-0.89,0l0,5.76l0.97,0l0,-4.44c0.19,-0.24 0.59,-0.64 1.18,-0.64zm5.43,4.36c-0.67,0 -1.27,-0.53 -1.27,-2.11c0,-1.63 0.71,-2.21 1.61,-2.21c0.35,0 0.58,0.1 0.74,0.2l0,3.56c-0.13,0.19 -0.46,0.56 -1.08,0.56zm1.14,0.11l0.03,0l0,0.61l0.89,0l0,-8.59l-0.98,0.11l0,2.76c-0.18,-0.08 -0.44,-0.15 -0.81,-0.15c-1.23,0 -2.55,0.75 -2.55,3.07c0,2.1 0.93,2.94 2.02,2.94c0.91,0 1.3,-0.57 1.4,-0.75z" id="svg_11" transform="translate(0, 12)"></path>
        <path d="m4.51,-7.8c-0.18,-0.14 -0.71,-0.62 -1.81,-0.62c-1.3,0 -2.12,0.81 -2.12,1.88c0,1.14 0.52,1.69 1.44,2.46l0.67,0.56c0.69,0.59 1.03,0.98 1.03,1.7c0,0.56 -0.46,1.03 -1.27,1.03c-0.85,0 -1.41,-0.53 -1.61,-0.72l-0.42,0.91c0.24,0.22 0.86,0.74 2.05,0.74c1.49,0 2.31,-0.85 2.31,-2.11c0,-1.08 -0.62,-1.73 -1.4,-2.37l-0.67,-0.56c-0.75,-0.61 -1.1,-1.02 -1.1,-1.66c0,-0.52 0.37,-0.96 1.09,-0.96c0.77,0 1.25,0.38 1.38,0.51l0.43,-0.79zm3.95,7.69l-0.13,-0.78c-0.1,0.06 -0.31,0.17 -0.6,0.17c-0.49,0 -0.69,-0.24 -0.69,-1.06l0,-3.19l1.26,0l0.12,-0.79l-1.38,0l0,-1.61l-0.86,0l-0.11,1.61l-0.69,0.14l0,0.65l0.69,0l0,3.33c0,1.27 0.51,1.78 1.49,1.78c0.52,0 0.82,-0.19 0.9,-0.25zm3.31,-3.13l-0.3,0c-1.31,0 -2.4,0.44 -2.4,1.78c0,0.93 0.66,1.6 1.54,1.6c0.73,0 1.08,-0.49 1.21,-0.78l0.02,0c0.02,0.29 0.03,0.47 0.04,0.64l0.92,0c-0.02,-0.16 -0.07,-0.71 -0.07,-1.2l0,-2.63c0,-1.45 -0.62,-2.07 -1.8,-2.07c-0.92,0 -1.47,0.44 -1.73,0.69l0.41,0.65c0.22,-0.19 0.6,-0.52 1.18,-0.52c0.62,0 0.98,0.32 0.98,1.29l0,0.55zm0,0.72l0,1.27c-0.12,0.18 -0.39,0.57 -0.96,0.57c-0.48,0 -0.77,-0.3 -0.77,-0.89c0,-0.64 0.5,-0.9 1.42,-0.94l0.31,-0.01zm4.79,-0.72l-0.3,0c-1.31,0 -2.4,0.44 -2.4,1.78c0,0.93 0.66,1.6 1.54,1.6c0.73,0 1.08,-0.49 1.21,-0.78l0.02,0c0.01,0.29 0.03,0.47 0.04,0.64l0.92,0c-0.02,-0.16 -0.07,-0.71 -0.07,-1.2l0,-2.63c0,-1.45 -0.62,-2.07 -1.8,-2.07c-0.92,0 -1.48,0.44 -1.73,0.69l0.41,0.65c0.22,-0.19 0.6,-0.52 1.18,-0.52c0.62,0 0.98,0.32 0.98,1.29l0,0.55zm0,0.72l0,1.27c-0.12,0.18 -0.4,0.57 -0.96,0.57c-0.48,0 -0.77,-0.3 -0.77,-0.89c0,-0.64 0.49,-0.9 1.42,-0.94l0.31,-0.01zm5.04,2.41l-0.13,-0.78c-0.1,0.06 -0.31,0.17 -0.6,0.17c-0.49,0 -0.69,-0.24 -0.69,-1.06l0,-3.19l1.26,0l0.12,-0.79l-1.38,0l0,-1.61l-0.86,0l-0.11,1.61l-0.69,0.14l0,0.65l0.69,0l0,3.33c0,1.27 0.51,1.78 1.49,1.78c0.52,0 0.82,-0.19 0.9,-0.25zm3.85,-5.18c-0.19,-0.19 -0.57,-0.61 -1.46,-0.61c-0.94,0 -1.67,0.63 -1.67,1.48c0,0.8 0.43,1.26 1.15,1.72l0.36,0.23c0.55,0.35 0.84,0.54 0.84,1.09c0,0.37 -0.31,0.66 -0.89,0.66c-0.62,0 -0.98,-0.37 -1.16,-0.56l-0.47,0.76c0.23,0.24 0.7,0.66 1.62,0.66c1.18,0 1.84,-0.7 1.84,-1.62c0,-0.85 -0.48,-1.32 -1.26,-1.78l-0.36,-0.22c-0.52,-0.31 -0.76,-0.55 -0.76,-0.98c0,-0.34 0.28,-0.62 0.79,-0.62c0.54,0 0.88,0.34 1.01,0.48l0.42,-0.69zm3.46,0.25c0.6,0 0.86,0.4 0.86,1.33l0,3.71l0.97,0l0,-3.86c0,-0.22 -0.01,-0.42 -0.04,-0.6c0.21,-0.26 0.57,-0.58 1.1,-0.58c0.65,0 1,0.4 1,1.33l0,3.71l0.97,0l0,-3.86c0,-1.37 -0.6,-2.04 -1.75,-2.04c-0.75,0 -1.28,0.44 -1.53,0.76c-0.26,-0.51 -0.74,-0.76 -1.39,-0.76c-0.79,0 -1.28,0.52 -1.44,0.79l-0.02,0l0,-0.65l-0.89,0l0,5.76l0.97,0l0,-4.44c0.17,-0.2 0.54,-0.6 1.19,-0.6zm6.05,2.16c0,2.16 0.97,3.02 2.24,3.02c1.26,0 2.3,-0.87 2.3,-3.02c0,-2.12 -0.97,-3.02 -2.24,-3.02c-1.24,0 -2.3,0.9 -2.3,3.02zm3.54,0c0,1.52 -0.47,2.16 -1.26,2.16c-0.8,0 -1.28,-0.64 -1.28,-2.16c0,-1.52 0.47,-2.2 1.26,-2.2c0.8,0 1.28,0.68 1.28,2.2zm4.24,2.16c-0.67,0 -1.27,-0.53 -1.27,-2.11c0,-1.63 0.71,-2.21 1.61,-2.21c0.35,0 0.58,0.1 0.74,0.2l0,3.56c-0.13,0.19 -0.46,0.56 -1.08,0.56zm1.14,0.11l0.03,0l0,0.61l0.89,0l0,-8.59l-0.98,0.11l0,2.76c-0.18,-0.08 -0.44,-0.15 -0.81,-0.15c-1.23,0 -2.55,0.75 -2.55,3.07c0,2.1 0.93,2.94 2.02,2.94c0.91,0 1.3,-0.57 1.4,-0.75zm4.28,-4.5c0.61,0 0.93,0.47 0.93,1.26c0,0.18 -0.01,0.33 -0.02,0.42l-2.09,0c0.05,-1.08 0.49,-1.68 1.18,-1.68zm1.94,4.57l-0.36,-0.68c-0.13,0.13 -0.53,0.5 -1.21,0.5c-0.97,0 -1.5,-0.64 -1.56,-1.98l2.94,0c0.03,-0.28 0.07,-0.62 0.07,-1.12c0,-1.38 -0.67,-2.08 -1.76,-2.08c-1.2,0 -2.2,0.91 -2.2,2.95c0,2.17 0.91,3.09 2.36,3.09c1.1,0 1.56,-0.51 1.72,-0.68zm3.83,-5.23c-0.1,-0.04 -0.25,-0.1 -0.53,-0.1c-0.73,0 -1.04,0.43 -1.21,0.89l-0.03,0l0,-0.78l-0.88,0l0,5.76l0.97,0l0,-4.22c0.14,-0.39 0.47,-0.78 1.08,-0.78c0.26,0 0.43,0.07 0.48,0.09l0.12,-0.86zm2.99,0.69c0.67,0 0.99,0.4 0.99,1.37l0,3.71l0.97,0l0,-3.78c0,-1.56 -0.64,-2.12 -1.68,-2.12c-0.9,0 -1.41,0.58 -1.52,0.79l-0.02,0l0,-0.65l-0.89,0l0,5.76l0.97,0l0,-4.44c0.19,-0.24 0.59,-0.64 1.18,-0.64zm3.91,-2.07c0.38,0 0.65,-0.29 0.65,-0.7c0,-0.39 -0.27,-0.68 -0.65,-0.68c-0.4,0 -0.66,0.29 -0.66,0.68c0,0.41 0.26,0.7 0.66,0.7zm0.48,1.39l-0.97,0l0,5.76l0.97,0l0,-5.76zm4.39,0.47c-0.19,-0.19 -0.58,-0.61 -1.46,-0.61c-0.94,0 -1.67,0.63 -1.67,1.48c0,0.8 0.43,1.26 1.15,1.72l0.36,0.23c0.55,0.35 0.84,0.54 0.84,1.09c0,0.37 -0.31,0.66 -0.89,0.66c-0.62,0 -0.98,-0.37 -1.16,-0.56l-0.47,0.76c0.23,0.24 0.7,0.66 1.62,0.66c1.18,0 1.84,-0.7 1.84,-1.62c0,-0.85 -0.48,-1.32 -1.26,-1.78l-0.36,-0.22c-0.52,-0.31 -0.76,-0.55 -0.76,-0.98c0,-0.34 0.28,-0.62 0.79,-0.62c0.54,0 0.88,0.34 1.01,0.48l0.42,-0.69zm1.79,-1.86c0.38,0 0.65,-0.29 0.65,-0.7c0,-0.39 -0.27,-0.68 -0.65,-0.68c-0.4,0 -0.66,0.29 -0.66,0.68c0,0.41 0.26,0.7 0.66,0.7zm0.48,1.39l-0.97,0l0,5.76l0.97,0l0,-5.76zm3.36,0.65c0.61,0 0.93,0.47 0.93,1.26c0,0.18 -0.01,0.33 -0.02,0.42l-2.09,0c0.05,-1.08 0.49,-1.68 1.18,-1.68zm1.94,4.57l-0.36,-0.68c-0.13,0.13 -0.53,0.5 -1.21,0.5c-0.97,0 -1.5,-0.64 -1.56,-1.98l2.94,0c0.04,-0.28 0.07,-0.62 0.07,-1.12c0,-1.38 -0.67,-2.08 -1.76,-2.08c-1.2,0 -2.2,0.91 -2.2,2.95c0,2.17 0.91,3.09 2.37,3.09c1.09,0 1.56,-0.51 1.71,-0.68zm3.83,-5.23c-0.1,-0.04 -0.25,-0.1 -0.53,-0.1c-0.73,0 -1.04,0.43 -1.21,0.89l-0.02,0l0,-0.78l-0.89,0l0,5.76l0.97,0l0,-4.22c0.14,-0.39 0.47,-0.78 1.08,-0.78c0.26,0 0.43,0.07 0.48,0.09l0.12,-0.86zm3.96,5.12l0.02,0l0,0.65l0.89,0l0,-5.76l-0.97,0l0,4.4c-0.19,0.24 -0.58,0.64 -1.16,0.64c-0.65,0 -0.96,-0.38 -0.96,-1.33l0,-3.71l-0.98,0l0,3.78c0,1.56 0.64,2.12 1.66,2.12c0.88,0 1.39,-0.58 1.5,-0.79zm4.55,-4.43c0.67,0 0.99,0.4 0.99,1.37l0,3.71l0.98,0l0,-3.78c0,-1.56 -0.65,-2.12 -1.68,-2.12c-0.9,0 -1.42,0.58 -1.53,0.79l-0.02,0l0,-0.65l-0.89,0l0,5.76l0.97,0l0,-4.44c0.19,-0.24 0.59,-0.64 1.18,-0.64zm6.15,1.11c0,0.83 -0.45,1.15 -1,1.15c-0.53,0 -1,-0.32 -1,-1.15c0,-0.83 0.47,-1.15 1.02,-1.15c0.53,0 0.98,0.32 0.98,1.15zm1.42,4.41c0,-1.09 -0.82,-1.52 -1.91,-1.52l-0.73,0c-0.42,0 -0.59,-0.17 -0.59,-0.41c0,-0.3 0.28,-0.45 0.47,-0.54c0.1,0.01 0.19,0.01 0.3,0.01c1.13,0 1.99,-0.73 1.99,-1.95c0,-0.39 -0.09,-0.75 -0.27,-1.03l0.72,0l0.13,-0.76l-1.75,0c-0.24,-0.1 -0.5,-0.14 -0.77,-0.14c-1.08,0 -1.96,0.63 -1.96,1.93c0,0.91 0.4,1.49 0.99,1.76l0,0.03c-0.15,0.07 -0.7,0.31 -0.7,0.93c0,0.36 0.13,0.63 0.37,0.81l0,0.02c-0.26,0.14 -0.96,0.55 -0.96,1.4c0,1 0.66,1.56 1.89,1.56c1.7,0 2.78,-0.86 2.78,-2.1zm-2.71,1.28c-0.69,0 -1.02,-0.32 -1.02,-0.93c0,-0.57 0.31,-0.85 0.59,-1.01c0.13,0.03 0.28,0.04 0.44,0.04l0.73,0c0.59,0 0.97,0.22 0.97,0.77c0,0.59 -0.54,1.13 -1.71,1.13z" id="svg_12" transform="translate(0, 24)"></path>
      </g>
    </g>
  </g>
</svg>
